<svg version="1.1" id="Layer_3" xmlns="http://www.w3.org/2000/svg" x="0" y="0" viewBox="0 0 64 64" style="enable-background:new 0 0 64 64" xml:space="preserve"><style>.st1{fill:#145E97}.st6{fill:#145E97}.st10{fill:#145E97}.st12{fill:#fff}</style><path class="st6" d="M46.891 26.883c0 3.279-6.667 5.937-14.891 5.937s-14.891-2.658-14.891-5.937V19.9h29.782v6.983z"/><path class="st12" d="M32 32.819c-8.224 0-14.891-2.658-14.891-5.937v9.349c0 3.279 6.667 5.937 14.891 5.937s14.891-2.658 14.891-5.937v-9.349c0 3.279-6.667 5.937-14.891 5.937z"/><path class="st6" d="M32 42.163c-8.224 0-14.891-2.658-14.891-5.937v9.349c0 3.279 6.667 5.937 14.891 5.937s14.891-2.658 14.891-5.937v-9.349c0 3.279-6.667 5.937-14.891 5.937z"/><path class="st10" d="M18.75 19.9h-1.641v6.983c0 .974.599 1.89 1.641 2.7V19.9zM18.75 38.927c-1.042-.811-1.641-1.727-1.641-2.7v9.349c0 .974.599 1.89 1.641 2.7v-9.349z"/><path class="st1" d="M32 33.319c-8.63 0-15.391-2.827-15.391-6.437V19.9a.5.5 0 0 1 .5-.5H46.89a.5.5 0 0 1 .5.5v6.982c.001 3.61-6.76 6.437-15.39 6.437zM17.609 20.4v6.482c0 2.947 6.59 5.437 14.391 5.437s14.391-2.489 14.391-5.437V20.4H17.609z"/><path class="st1" d="M31.5 24.472h1v2.697h-1z"/><path class="st1" d="M32 42.668c-8.63 0-15.391-2.827-15.391-6.437v-9.35a.5.5 0 0 1 1 0c0 2.947 6.59 5.437 14.391 5.437s14.391-2.489 14.391-5.437a.5.5 0 0 1 1 0v9.35c0 3.61-6.761 6.437-15.391 6.437zm-14.391-13.46v7.023c0 2.947 6.59 5.437 14.391 5.437s14.391-2.489 14.391-5.437v-7.023c-2.187 2.427-7.732 4.11-14.391 4.11s-12.204-1.683-14.391-4.11z"/><path class="st1" d="M32 52.012c-8.63 0-15.391-2.828-15.391-6.438v-9.349a.5.5 0 0 1 1 0c0 2.947 6.59 5.437 14.391 5.437s14.391-2.489 14.391-5.437a.5.5 0 0 1 1 0v9.349c0 3.61-6.761 6.438-15.391 6.438zm-14.391-13.46v7.022c0 2.947 6.59 5.438 14.391 5.438s14.391-2.49 14.391-5.438v-7.022c-2.187 2.427-7.732 4.11-14.391 4.11s-12.204-1.683-14.391-4.11z"/><path class="st6" d="M54.336 13.71 32 24.472 9.664 13.71 32 2.948z"/><path class="st10" d="M13.164 13.71 33.75 3.791 32 2.948 9.664 13.71 32 24.472l1.75-.843z"/><path class="st1" d="M32 24.972a.503.503 0 0 1-.217-.05L9.447 14.161a.499.499 0 0 1 0-.9L31.783 2.498a.5.5 0 0 1 .434 0L54.553 13.26a.499.499 0 0 1 0 .9L32.217 24.922a.489.489 0 0 1-.217.05zM10.816 13.71 32 23.917 53.184 13.71 32 3.502 10.816 13.71z"/><path style="fill:#ffff" d="M32 24.472 9.664 13.71v2.697L32 27.169l22.336-10.762V13.71z"/><path class="st10" d="m11.187 14.444-1.523-.734v2.697l1.523.734z"/><path class="st1" d="M32 27.669a.503.503 0 0 1-.217-.05L9.447 16.857a.499.499 0 0 1-.283-.45V13.71a.496.496 0 0 1 .716-.45L32 23.917 54.119 13.26a.496.496 0 0 1 .716.45v2.696c0 .192-.11.367-.283.45L32.217 27.62a.502.502 0 0 1-.217.049zM10.164 16.092 32 26.615l21.836-10.522v-1.586L32.217 24.922a.5.5 0 0 1-.434 0L10.164 14.506v1.586z"/><path class="st1" d="M13.031 24.654h-1v-9.597c0-.19.108-.364.279-.449l6.544-3.216.441.898-6.265 3.078v9.286z"/><circle class="st12" cx="12.531" cy="25.821" r="1.583"/><path class="st1" d="M12.531 27.904a2.086 2.086 0 0 1-2.084-2.083c0-1.149.935-2.084 2.084-2.084 1.148 0 2.083.935 2.083 2.084a2.085 2.085 0 0 1-2.083 2.083zm0-3.167a1.084 1.084 0 1 0 0 2.166 1.084 1.084 0 0 0 0-2.166z"/><path d="M14.614 35.154h-4.167v-5.667a2.083 2.083 0 1 1 4.166 0v5.667z" style="fill:#145E97"/><path class="st1" d="M14.614 35.654h-4.167a.5.5 0 0 1-.5-.5v-5.667a2.586 2.586 0 0 1 2.584-2.583 2.586 2.586 0 0 1 2.583 2.583v5.667a.5.5 0 0 1-.5.5zm-3.667-1h3.167v-5.167a1.585 1.585 0 0 0-3.167 0v5.167zM31.5 51.512h1v4.436h-1z"/><path class="st1" d="M32 61.552a3.055 3.055 0 0 1-3.052-3.052c0-1.684 1.369-3.053 3.052-3.053s3.052 1.369 3.052 3.053A3.055 3.055 0 0 1 32 61.552zm0-5.104a2.055 2.055 0 0 0-2.052 2.053c0 1.131.921 2.052 2.052 2.052s2.052-.921 2.052-2.052A2.055 2.055 0 0 0 32 56.448zM43.333 61.552a3.055 3.055 0 0 1-3.052-3.052 3.056 3.056 0 0 1 3.052-3.053 3.056 3.056 0 0 1 3.053 3.053 3.056 3.056 0 0 1-3.053 3.052zm0-5.104a2.055 2.055 0 0 0-2.052 2.053c0 1.131.921 2.052 2.052 2.052a2.055 2.055 0 0 0 2.053-2.052 2.055 2.055 0 0 0-2.053-2.053zM20.667 61.552a3.056 3.056 0 0 1-3.053-3.052 3.056 3.056 0 0 1 3.053-3.053 3.056 3.056 0 0 1 3.052 3.053 3.055 3.055 0 0 1-3.052 3.052zm0-5.104a2.055 2.055 0 0 0-2.053 2.053c0 1.131.921 2.052 2.053 2.052a2.055 2.055 0 0 0 2.052-2.052 2.055 2.055 0 0 0-2.052-2.053z"/><path class="st1" d="M23.219 58h6.229v1h-6.229zM34.552 58h6.229v1h-6.229z"/></svg>